<?xml version="1.0" encoding="UTF-8"?>
<svg id="Layer_2" data-name="Layer 2" xmlns="http://www.w3.org/2000/svg" viewBox="0 0 199.12 271.51">
  <defs>
    <style>
      .cls-1 {
        fill: none;
      }

      .cls-1, .cls-2 {
        stroke: #231f20;
      }

      .cls-1, .cls-2, .cls-3 {
        stroke-miterlimit: 10;
      }

      .cls-2 {
        fill: #fff;
      }

      .cls-3 {
        fill: #231f20;
        stroke: #fff;
      }
    </style>
  </defs>
  <g id="Layer_2-2" data-name="Layer 2">
    <polygon class="cls-2" points="99.56 270.98 45.56 252.98 18.56 216.98 .56 171.98 .56 135.98 9.56 99.98 .56 81.98 27.56 27.98 54.56 .98 72.56 72.98 99.56 63.98 126.56 72.98 144.56 .98 171.56 27.98 198.56 81.98 189.56 99.98 198.56 135.98 198.56 171.98 180.56 216.98 153.56 252.98 99.56 270.98"/>
    <polygon class="cls-3" points="144.56 72.98 153.56 27.98 180.56 81.98 144.56 72.98"/>
    <polygon class="cls-3" points="117.56 171.98 135.56 135.98 189.56 117.98 180.56 144.98 117.56 171.98"/>
    <polygon class="cls-3" points="144.56 180.98 162.56 162.98 180.56 162.98 180.56 171.98 144.56 180.98"/>
    <polygon class="cls-3" points="144.56 198.98 162.56 189.98 171.56 198.98 144.56 198.98"/>
    <polygon class="cls-3" points="54.56 72.98 45.56 27.98 18.56 81.98 54.56 72.98"/>
    <polygon class="cls-3" points="81.56 171.98 63.56 135.98 9.56 117.98 18.56 144.98 81.56 171.98"/>
    <polygon class="cls-3" points="54.56 180.98 36.56 162.98 18.56 162.98 18.56 171.98 54.56 180.98"/>
    <polygon class="cls-3" points="54.56 198.98 36.56 189.98 27.56 198.98 54.56 198.98"/>
    <path class="cls-3" d="m99.91,207.01l7.75.6c2.65.2,4.57,2.6,4.2,5.23l-.07.51c-.15,1.05-.66,2.02-1.44,2.74l-7.68,7.04c-1.76,1.61-4.46,1.61-6.21,0l-7.68-7.04c-.78-.72-1.29-1.69-1.44-2.74l-.07-.51c-.38-2.63,1.55-5.03,4.2-5.23l7.75-.6c.23-.02.47-.02.71,0Z"/>
    <path class="cls-3" d="m101.02,225.44c-.32.38,5.35,8.33,15.17,11.08,5.57,1.56,10.14.8,14.75.04,6.35-1.05,11.04-3.45,20.42-8.25,5.73-2.93,9.59-5.37,11.79-9.67,1.34-2.63,1.21-4.29.92-5.33-.74-2.61-3.47-4.65-6.04-4.67-4.58-.03-7.29,6.36-7.92,7.83-.63,1.47-.79,2.45-1,3.25-1.83,6.88-10.42,11.92-16.83,13.83-8.19,2.45-15.12.48-17.54-.25-8.78-2.63-13.43-8.21-13.71-7.88Z"/>
    <path class="cls-3" d="m98.23,225.44c.32.38-5.35,8.33-15.17,11.08-5.57,1.56-10.14.8-14.75.04-6.35-1.05-11.04-3.45-20.42-8.25-5.73-2.93-9.59-5.37-11.79-9.67-1.34-2.63-1.21-4.29-.92-5.33.74-2.61,3.47-4.65,6.04-4.67,4.58-.03,7.29,6.36,7.92,7.83.63,1.47.79,2.45,1,3.25,1.83,6.88,10.42,11.92,16.83,13.83,8.19,2.45,15.12.48,17.54-.25,8.78-2.63,13.43-8.21,13.71-7.88Z"/>
    <path class="cls-1" d="m72.56,189.98c27-27,54,0,54,0"/>
    <polygon class="cls-3" points="81.56 99.98 99.56 144.98 117.56 99.98 99.56 81.98 81.56 99.98"/>
    <polygon class="cls-3" points="63.56 108.98 63.56 126.98 90.56 144.98 63.56 108.98"/>
    <polygon class="cls-3" points="135.56 108.98 135.56 126.98 108.56 144.98 135.56 108.98"/>
  </g>
</svg>