<?xml version="1.0" encoding="UTF-8"?>
<svg id="Layer_2" data-name="Layer 2" xmlns="http://www.w3.org/2000/svg" viewBox="0 0 203.59 277.53">
  <defs>
    <style>
      .cls-1 {
        fill: none;
      }

      .cls-1, .cls-2 {
        stroke: #fff;
        stroke-miterlimit: 10;
        stroke-width: 5px;
      }

      .cls-2 {
        fill: #fff;
      }
    </style>
  </defs>
  <g id="Layer_2-2" data-name="Layer 2">
    <polygon class="cls-1" points="101.8 274.89 47.8 256.89 20.8 220.89 2.8 175.89 2.8 139.89 11.8 103.89 2.8 85.89 29.8 31.89 56.8 4.89 74.8 76.89 101.8 67.89 128.8 76.89 146.8 4.89 173.8 31.89 200.8 85.89 191.8 103.89 200.8 139.89 200.8 175.89 182.8 220.89 155.8 256.89 101.8 274.89"/>
    <polygon class="cls-2" points="146.8 76.89 155.8 31.89 182.8 85.89 146.8 76.89"/>
    <polygon class="cls-2" points="119.8 175.89 137.8 139.89 186.8 126.89 177.8 153.89 119.8 175.89"/>
    <polygon class="cls-2" points="56.8 76.89 47.8 31.89 20.8 85.89 56.8 76.89"/>
    <polygon class="cls-2" points="83.8 175.89 65.8 139.89 16.8 126.89 25.8 153.89 83.8 175.89"/>
    <path class="cls-2" d="m102.15,210.92l7.75.6c2.65.2,4.57,2.6,4.2,5.23l-.07.51c-.15,1.05-.66,2.02-1.44,2.74l-7.68,7.04c-1.76,1.61-4.46,1.61-6.21,0l-7.68-7.04c-.78-.72-1.29-1.69-1.44-2.74l-.07-.51c-.38-2.63,1.55-5.03,4.2-5.23l7.75-.6c.23-.02.47-.02.71,0Z"/>
    <path class="cls-2" d="m103.25,229.35c-.32.38,5.35,8.33,15.17,11.08,5.57,1.56,10.14.8,14.75.04,6.35-1.05,11.04-3.45,20.42-8.25,5.73-2.93,9.59-5.37,11.79-9.67,1.34-2.63,1.21-4.29.92-5.33-.74-2.61-3.47-4.65-6.04-4.67-4.58-.03-7.29,6.36-7.92,7.83-.63,1.47-.79,2.45-1,3.25-1.83,6.88-10.42,11.92-16.83,13.83-8.19,2.45-15.12.48-17.54-.25-8.78-2.63-13.43-8.21-13.71-7.88Z"/>
    <path class="cls-2" d="m100.46,229.35c.32.38-5.35,8.33-15.17,11.08-5.57,1.56-10.14.8-14.75.04-6.35-1.05-11.04-3.45-20.42-8.25-5.73-2.93-9.59-5.37-11.79-9.67-1.34-2.63-1.21-4.29-.92-5.33.74-2.61,3.47-4.65,6.04-4.67,4.58-.03,7.29,6.36,7.92,7.83.63,1.47.79,2.45,1,3.25,1.83,6.88,10.42,11.92,16.83,13.83,8.19,2.45,15.12.48,17.54-.25,8.78-2.63,13.43-8.21,13.71-7.88Z"/>
    <path class="cls-1" d="m74.8,193.89c27-27,54,0,54,0"/>
  </g>
</svg>